<svg xmlns="http://www.w3.org/2000/svg" viewBox="0 0 512 512">
  <rect width="512" height="512" rx="96" fill="#0d1117"/>
  <path fill="#31d083" d="M92 352c18-66 74-116 142-124l22-78 22 78c68 8 124 58 142 124H92Z"/>
  <circle cx="256" cy="214" r="86" fill="#f6f8fb"/>
  <path fill="#151b24" d="m256 128 27 56 62 9-45 44 11 62-55-29-55 29 11-62-45-44 62-9 27-56Z"/>
  <path fill="#ff75bd" d="M176 368h160c18 0 32 14 32 32s-14 32-32 32H176c-18 0-32-14-32-32s14-32 32-32Z"/>
  <text x="256" y="415" text-anchor="middle" font-family="Arial, sans-serif" font-size="44" font-weight="800" fill="#190514">2026</text>
</svg>
