<svg xmlns="http://www.w3.org/2000/svg" width="1200" height="900" viewBox="0 0 1200 900" role="img" aria-label="MovilShop theme preview">
  <rect width="1200" height="900" fill="#f6f8fb"/>
  <rect x="90" y="90" width="1020" height="580" rx="8" fill="#101827"/>
  <path d="M90 90h1020v580H90z" fill="#0f7cff" opacity=".16"/>
  <text x="150" y="250" fill="#fff" font-family="Arial, sans-serif" font-size="76" font-weight="800">Accesorios para celular</text>
  <text x="154" y="318" fill="#cbd5e1" font-family="Arial, sans-serif" font-size="30">Catalogo con precios y WhatsApp</text>
  <rect x="152" y="370" width="190" height="58" rx="6" fill="#fff"/>
  <text x="190" y="407" fill="#121417" font-family="Arial, sans-serif" font-size="21" font-weight="800">Ver catalogo</text>
  <rect x="780" y="178" width="230" height="360" rx="34" fill="#1d2430"/>
  <rect x="800" y="202" width="190" height="312" rx="24" fill="#dbeafe"/>
  <circle cx="935" cy="435" r="42" fill="#18a957"/>
  <circle cx="850" cy="345" r="38" fill="#facc15"/>
  <rect x="90" y="710" width="235" height="120" rx="8" fill="#fff"/>
  <rect x="355" y="710" width="235" height="120" rx="8" fill="#fff"/>
  <rect x="620" y="710" width="235" height="120" rx="8" fill="#fff"/>
  <rect x="885" y="710" width="225" height="120" rx="8" fill="#fff"/>
</svg>
